<?xml version="1.0" encoding="UTF-8" standalone="no"?>
<!DOCTYPE svg PUBLIC "-//W3C//DTD SVG 1.1//EN"
 "http://www.w3.org/Graphics/SVG/1.1/DTD/svg11.dtd">
<!-- Generated by graphviz version 2.47.0 (20210316.0004)
 -->
<!-- Title: dependencies Pages: 1 -->
<svg width="1602pt" height="284pt"
 viewBox="0.00 0.00 1602.00 284.00" xmlns="http://www.w3.org/2000/svg" xmlns:xlink="http://www.w3.org/1999/xlink">
<g id="graph0" class="graph" transform="scale(1 1) rotate(0) translate(4 280)">
<title>dependencies</title>
<polygon fill="white" stroke="transparent" points="-4,4 -4,-280 1598,-280 1598,4 -4,4"/>
<text text-anchor="start" x="776.01" y="-42.4" font-family="Times-12" font-weight="bold" font-size="14.00">Legend</text>
<polygon fill="#ffffb3" stroke="transparent" points="563,-10 563,-30 583,-30 583,-10 563,-10"/>
<text text-anchor="start" x="586.63" y="-15.4" font-family="Times-12" font-size="14.00"> &#160;Declarations</text>
<polygon fill="#8dd3c7" stroke="transparent" points="676,-10 676,-30 696,-30 696,-10 676,-10"/>
<text text-anchor="start" x="699.73" y="-15.4" font-family="Times-12" font-size="14.00"> &#160;Module</text>
<polygon fill="#80b1d3" stroke="transparent" points="762,-10 762,-30 782,-30 782,-10 762,-10"/>
<text text-anchor="start" x="785.78" y="-15.4" font-family="Times-12" font-size="14.00"> &#160;Bootstrap</text>
<polygon fill="#fdb462" stroke="transparent" points="859,-10 859,-30 879,-30 879,-10 859,-10"/>
<text text-anchor="start" x="882.67" y="-15.4" font-family="Times-12" font-size="14.00"> &#160;Providers</text>
<polygon fill="#fb8072" stroke="transparent" points="955,-10 955,-30 975,-30 975,-10 955,-10"/>
<text text-anchor="start" x="978.73" y="-15.4" font-family="Times-12" font-size="14.00"> &#160;Exports</text>
<g id="clust1" class="cluster">
<title>cluster_AppModule</title>
<polygon fill="none" stroke="black" stroke-dasharray="1,5" points="8,-70 8,-268 1586,-268 1586,-70 8,-70"/>
</g>
<g id="clust2" class="cluster">
<title>cluster_AppModule_declarations</title>
<polygon fill="none" stroke="black" points="168,-78 168,-130 1578,-130 1578,-78 168,-78"/>
</g>
<g id="clust15" class="cluster">
<title>cluster_AppModule_bootstrap</title>
<polygon fill="none" stroke="black" points="764,-208 764,-260 888,-260 888,-208 764,-208"/>
</g>
<g id="clust13" class="cluster">
<title>cluster_AppModule_imports</title>
<polygon fill="none" stroke="black" points="16,-78 16,-130 160,-130 160,-78 16,-78"/>
</g>
<!-- AddItemsComponent -->
<g id="node1" class="node">
<title>AddItemsComponent</title>
<polygon fill="#ffffb3" stroke="black" points="1570.04,-122 1433.96,-122 1433.96,-86 1570.04,-86 1570.04,-122"/>
<text text-anchor="middle" x="1502" y="-99.8" font-family="Times,serif" font-size="14.00">AddItemsComponent</text>
</g>
<!-- AppModule -->
<g id="node11" class="node">
<title>AppModule</title>
<polygon fill="#8dd3c7" stroke="black" points="867.66,-187 864.66,-191 843.66,-191 840.66,-187 784.34,-187 784.34,-151 867.66,-151 867.66,-187"/>
<text text-anchor="middle" x="826" y="-164.8" font-family="Times,serif" font-size="14.00">AppModule</text>
</g>
<!-- AddItemsComponent&#45;&gt;AppModule -->
<g id="edge1" class="edge">
<title>AddItemsComponent&#45;&gt;AppModule</title>
<path fill="none" stroke="black" d="M1502,-122.25C1502,-145.02 1502,-181 1502,-181 1502,-181 877.78,-181 877.78,-181"/>
<polygon fill="black" stroke="black" points="877.78,-177.5 867.78,-181 877.78,-184.5 877.78,-177.5"/>
</g>
<!-- AppComponent -->
<g id="node2" class="node">
<title>AppComponent</title>
<polygon fill="#ffffb3" stroke="black" points="1415.94,-122 1310.06,-122 1310.06,-86 1415.94,-86 1415.94,-122"/>
<text text-anchor="middle" x="1363" y="-99.8" font-family="Times,serif" font-size="14.00">AppComponent</text>
</g>
<!-- AppComponent&#45;&gt;AppModule -->
<g id="edge2" class="edge">
<title>AppComponent&#45;&gt;AppModule</title>
<path fill="none" stroke="black" d="M1363,-122.28C1363,-143.32 1363,-175 1363,-175 1363,-175 877.69,-175 877.69,-175"/>
<polygon fill="black" stroke="black" points="877.69,-171.5 867.69,-175 877.69,-178.5 877.69,-171.5"/>
</g>
<!-- HomeComponent -->
<g id="node3" class="node">
<title>HomeComponent</title>
<polygon fill="#ffffb3" stroke="black" points="1292.55,-122 1177.45,-122 1177.45,-86 1292.55,-86 1292.55,-122"/>
<text text-anchor="middle" x="1235" y="-99.8" font-family="Times,serif" font-size="14.00">HomeComponent</text>
</g>
<!-- HomeComponent&#45;&gt;AppModule -->
<g id="edge3" class="edge">
<title>HomeComponent&#45;&gt;AppModule</title>
<path fill="none" stroke="black" d="M1235,-122.11C1235,-141.34 1235,-169 1235,-169 1235,-169 877.85,-169 877.85,-169"/>
<polygon fill="black" stroke="black" points="877.85,-165.5 867.85,-169 877.85,-172.5 877.85,-165.5"/>
</g>
<!-- LoaderComponent -->
<g id="node4" class="node">
<title>LoaderComponent</title>
<polygon fill="#ffffb3" stroke="black" points="1159.47,-122 1038.53,-122 1038.53,-86 1159.47,-86 1159.47,-122"/>
<text text-anchor="middle" x="1099" y="-99.8" font-family="Times,serif" font-size="14.00">LoaderComponent</text>
</g>
<!-- LoaderComponent&#45;&gt;AppModule -->
<g id="edge4" class="edge">
<title>LoaderComponent&#45;&gt;AppModule</title>
<path fill="none" stroke="black" d="M1099,-122.02C1099,-139.37 1099,-163 1099,-163 1099,-163 877.76,-163 877.76,-163"/>
<polygon fill="black" stroke="black" points="877.76,-159.5 867.76,-163 877.76,-166.5 877.76,-159.5"/>
</g>
<!-- LoginComponent -->
<g id="node5" class="node">
<title>LoginComponent</title>
<polygon fill="#ffffb3" stroke="black" points="1020.28,-122 905.72,-122 905.72,-86 1020.28,-86 1020.28,-122"/>
<text text-anchor="middle" x="963" y="-99.8" font-family="Times,serif" font-size="14.00">LoginComponent</text>
</g>
<!-- LoginComponent&#45;&gt;AppModule -->
<g id="edge5" class="edge">
<title>LoginComponent&#45;&gt;AppModule</title>
<path fill="none" stroke="black" d="M963,-122.24C963,-137.57 963,-157 963,-157 963,-157 877.85,-157 877.85,-157"/>
<polygon fill="black" stroke="black" points="877.85,-153.5 867.85,-157 877.85,-160.5 877.85,-153.5"/>
</g>
<!-- NavbarComponent -->
<g id="node6" class="node">
<title>NavbarComponent</title>
<polygon fill="#ffffb3" stroke="black" points="887.03,-122 764.97,-122 764.97,-86 887.03,-86 887.03,-122"/>
<text text-anchor="middle" x="826" y="-99.8" font-family="Times,serif" font-size="14.00">NavbarComponent</text>
</g>
<!-- NavbarComponent&#45;&gt;AppModule -->
<g id="edge6" class="edge">
<title>NavbarComponent&#45;&gt;AppModule</title>
<path fill="none" stroke="black" d="M826,-122.11C826,-122.11 826,-140.99 826,-140.99"/>
<polygon fill="black" stroke="black" points="822.5,-140.99 826,-150.99 829.5,-140.99 822.5,-140.99"/>
</g>
<!-- ProductsComponent -->
<g id="node7" class="node">
<title>ProductsComponent</title>
<polygon fill="#ffffb3" stroke="black" points="747.33,-122 616.67,-122 616.67,-86 747.33,-86 747.33,-122"/>
<text text-anchor="middle" x="682" y="-99.8" font-family="Times,serif" font-size="14.00">ProductsComponent</text>
</g>
<!-- ProductsComponent&#45;&gt;AppModule -->
<g id="edge7" class="edge">
<title>ProductsComponent&#45;&gt;AppModule</title>
<path fill="none" stroke="black" d="M682,-122.24C682,-137.57 682,-157 682,-157 682,-157 773.96,-157 773.96,-157"/>
<polygon fill="black" stroke="black" points="773.96,-160.5 783.96,-157 773.96,-153.5 773.96,-160.5"/>
</g>
<!-- RegisterComponent -->
<g id="node8" class="node">
<title>RegisterComponent</title>
<polygon fill="#ffffb3" stroke="black" points="598.98,-122 471.02,-122 471.02,-86 598.98,-86 598.98,-122"/>
<text text-anchor="middle" x="535" y="-99.8" font-family="Times,serif" font-size="14.00">RegisterComponent</text>
</g>
<!-- RegisterComponent&#45;&gt;AppModule -->
<g id="edge8" class="edge">
<title>RegisterComponent&#45;&gt;AppModule</title>
<path fill="none" stroke="black" d="M535,-122.02C535,-139.37 535,-163 535,-163 535,-163 774.31,-163 774.31,-163"/>
<polygon fill="black" stroke="black" points="774.31,-166.5 784.31,-163 774.31,-159.5 774.31,-166.5"/>
</g>
<!-- SellItemsComponent -->
<g id="node9" class="node">
<title>SellItemsComponent</title>
<polygon fill="#ffffb3" stroke="black" points="453.21,-122 318.79,-122 318.79,-86 453.21,-86 453.21,-122"/>
<text text-anchor="middle" x="386" y="-99.8" font-family="Times,serif" font-size="14.00">SellItemsComponent</text>
</g>
<!-- SellItemsComponent&#45;&gt;AppModule -->
<g id="edge9" class="edge">
<title>SellItemsComponent&#45;&gt;AppModule</title>
<path fill="none" stroke="black" d="M386,-122.11C386,-141.34 386,-169 386,-169 386,-169 774.21,-169 774.21,-169"/>
<polygon fill="black" stroke="black" points="774.21,-172.5 784.21,-169 774.21,-165.5 774.21,-172.5"/>
</g>
<!-- UserlistComponent -->
<g id="node10" class="node">
<title>UserlistComponent</title>
<polygon fill="#ffffb3" stroke="black" points="300.38,-122 175.62,-122 175.62,-86 300.38,-86 300.38,-122"/>
<text text-anchor="middle" x="238" y="-99.8" font-family="Times,serif" font-size="14.00">UserlistComponent</text>
</g>
<!-- UserlistComponent&#45;&gt;AppModule -->
<g id="edge10" class="edge">
<title>UserlistComponent&#45;&gt;AppModule</title>
<path fill="none" stroke="black" d="M238,-122.28C238,-143.32 238,-175 238,-175 238,-175 774.18,-175 774.18,-175"/>
<polygon fill="black" stroke="black" points="774.18,-178.5 784.18,-175 774.18,-171.5 774.18,-178.5"/>
</g>
<!-- AppComponent  -->
<g id="node13" class="node">
<title>AppComponent </title>
<polygon fill="#80b1d3" stroke="black" points="880.44,-252 771.56,-252 771.56,-216 880.44,-216 880.44,-252"/>
<text text-anchor="middle" x="826" y="-229.8" font-family="Times,serif" font-size="14.00">AppComponent </text>
</g>
<!-- AppModule&#45;&gt;AppComponent  -->
<g id="edge12" class="edge">
<title>AppModule&#45;&gt;AppComponent </title>
<path fill="none" stroke="black" stroke-dasharray="1,5" d="M826,-187.11C826,-187.11 826,-205.99 826,-205.99"/>
<polygon fill="black" stroke="black" points="822.5,-205.99 826,-215.99 829.5,-205.99 822.5,-205.99"/>
</g>
<!-- AppRoutingModule -->
<g id="node12" class="node">
<title>AppRoutingModule</title>
<polygon fill="#8dd3c7" stroke="black" points="152.27,-122 149.27,-126 128.27,-126 125.27,-122 23.73,-122 23.73,-86 152.27,-86 152.27,-122"/>
<text text-anchor="middle" x="88" y="-99.8" font-family="Times,serif" font-size="14.00">AppRoutingModule</text>
</g>
<!-- AppRoutingModule&#45;&gt;AppModule -->
<g id="edge11" class="edge">
<title>AppRoutingModule&#45;&gt;AppModule</title>
<path fill="none" stroke="black" d="M88,-122.25C88,-145.02 88,-181 88,-181 88,-181 774.21,-181 774.21,-181"/>
<polygon fill="black" stroke="black" points="774.21,-184.5 784.21,-181 774.21,-177.5 774.21,-184.5"/>
</g>
</g>
</svg>
