<?xml version="1.0" encoding="UTF-8" standalone="no"?>
<!DOCTYPE svg PUBLIC "-//W3C//DTD SVG 1.1//EN"
 "http://www.w3.org/Graphics/SVG/1.1/DTD/svg11.dtd">
<!-- Generated by graphviz version 2.47.0 (20210316.0004)
 -->
<!-- Title: dependencies Pages: 1 -->
<svg width="2360pt" height="284pt"
 viewBox="0.00 0.00 2360.00 284.00" xmlns="http://www.w3.org/2000/svg" xmlns:xlink="http://www.w3.org/1999/xlink">
<g id="graph0" class="graph" transform="scale(1 1) rotate(0) translate(4 280)">
<title>dependencies</title>
<polygon fill="white" stroke="transparent" points="-4,4 -4,-280 2356,-280 2356,4 -4,4"/>
<text text-anchor="start" x="1155.01" y="-42.4" font-family="Times-12" font-weight="bold" font-size="14.00">Legend</text>
<polygon fill="#ffffb3" stroke="transparent" points="942,-10 942,-30 962,-30 962,-10 942,-10"/>
<text text-anchor="start" x="965.63" y="-15.4" font-family="Times-12" font-size="14.00"> &#160;Declarations</text>
<polygon fill="#8dd3c7" stroke="transparent" points="1055,-10 1055,-30 1075,-30 1075,-10 1055,-10"/>
<text text-anchor="start" x="1078.73" y="-15.4" font-family="Times-12" font-size="14.00"> &#160;Module</text>
<polygon fill="#80b1d3" stroke="transparent" points="1141,-10 1141,-30 1161,-30 1161,-10 1141,-10"/>
<text text-anchor="start" x="1164.78" y="-15.4" font-family="Times-12" font-size="14.00"> &#160;Bootstrap</text>
<polygon fill="#fdb462" stroke="transparent" points="1238,-10 1238,-30 1258,-30 1258,-10 1238,-10"/>
<text text-anchor="start" x="1261.67" y="-15.4" font-family="Times-12" font-size="14.00"> &#160;Providers</text>
<polygon fill="#fb8072" stroke="transparent" points="1334,-10 1334,-30 1354,-30 1354,-10 1334,-10"/>
<text text-anchor="start" x="1357.73" y="-15.4" font-family="Times-12" font-size="14.00"> &#160;Exports</text>
<g id="clust1" class="cluster">
<title>cluster_AddItemsModule</title>
<polygon fill="none" stroke="black" stroke-dasharray="1,5" points="8,-70 8,-195 200,-195 200,-70 8,-70"/>
</g>
<g id="clust3" class="cluster">
<title>cluster_AddItemsModule_imports</title>
<polygon fill="none" stroke="black" points="16,-78 16,-130 192,-130 192,-78 16,-78"/>
</g>
<g id="clust13" class="cluster">
<title>cluster_AppModule</title>
<polygon fill="none" stroke="black" stroke-dasharray="1,5" points="208,-70 208,-268 1786,-268 1786,-70 208,-70"/>
</g>
<g id="clust14" class="cluster">
<title>cluster_AppModule_declarations</title>
<polygon fill="none" stroke="black" points="368,-78 368,-130 1778,-130 1778,-78 368,-78"/>
</g>
<g id="clust25" class="cluster">
<title>cluster_AppModule_imports</title>
<polygon fill="none" stroke="black" points="216,-78 216,-130 360,-130 360,-78 216,-78"/>
</g>
<g id="clust27" class="cluster">
<title>cluster_AppModule_bootstrap</title>
<polygon fill="none" stroke="black" points="964,-208 964,-260 1088,-260 1088,-208 964,-208"/>
</g>
<g id="clust35" class="cluster">
<title>cluster_ProductModule</title>
<polygon fill="none" stroke="black" stroke-dasharray="1,5" points="1794,-70 1794,-195 1974,-195 1974,-70 1794,-70"/>
</g>
<g id="clust37" class="cluster">
<title>cluster_ProductModule_imports</title>
<polygon fill="none" stroke="black" points="1802,-78 1802,-130 1966,-130 1966,-78 1802,-78"/>
</g>
<g id="clust47" class="cluster">
<title>cluster_SellItemsModule</title>
<polygon fill="none" stroke="black" stroke-dasharray="1,5" points="1982,-70 1982,-195 2172,-195 2172,-70 1982,-70"/>
</g>
<g id="clust49" class="cluster">
<title>cluster_SellItemsModule_imports</title>
<polygon fill="none" stroke="black" points="1990,-78 1990,-130 2164,-130 2164,-78 1990,-78"/>
</g>
<g id="clust59" class="cluster">
<title>cluster_UserModule</title>
<polygon fill="none" stroke="black" stroke-dasharray="1,5" points="2180,-70 2180,-195 2344,-195 2344,-70 2180,-70"/>
</g>
<g id="clust61" class="cluster">
<title>cluster_UserModule_imports</title>
<polygon fill="none" stroke="black" points="2188,-78 2188,-130 2336,-130 2336,-78 2188,-78"/>
</g>
<!-- AddItemsRoutingModule -->
<g id="node1" class="node">
<title>AddItemsRoutingModule</title>
<polygon fill="#8dd3c7" stroke="black" points="183.88,-122 180.88,-126 159.88,-126 156.88,-122 24.12,-122 24.12,-86 183.88,-86 183.88,-122"/>
<text text-anchor="middle" x="104" y="-99.8" font-family="Times,serif" font-size="14.00">AddItemsRoutingModule</text>
</g>
<!-- AddItemsModule -->
<g id="node2" class="node">
<title>AddItemsModule</title>
<polygon fill="#8dd3c7" stroke="black" points="161.26,-187 158.26,-191 137.26,-191 134.26,-187 46.74,-187 46.74,-151 161.26,-151 161.26,-187"/>
<text text-anchor="middle" x="104" y="-164.8" font-family="Times,serif" font-size="14.00">AddItemsModule</text>
</g>
<!-- AddItemsRoutingModule&#45;&gt;AddItemsModule -->
<g id="edge1" class="edge">
<title>AddItemsRoutingModule&#45;&gt;AddItemsModule</title>
<path fill="none" stroke="black" d="M104,-122.11C104,-122.11 104,-140.99 104,-140.99"/>
<polygon fill="black" stroke="black" points="100.5,-140.99 104,-150.99 107.5,-140.99 100.5,-140.99"/>
</g>
<!-- AddItemsComponent -->
<g id="node3" class="node">
<title>AddItemsComponent</title>
<polygon fill="#ffffb3" stroke="black" points="1770.04,-122 1633.96,-122 1633.96,-86 1770.04,-86 1770.04,-122"/>
<text text-anchor="middle" x="1702" y="-99.8" font-family="Times,serif" font-size="14.00">AddItemsComponent</text>
</g>
<!-- AppModule -->
<g id="node13" class="node">
<title>AppModule</title>
<polygon fill="#8dd3c7" stroke="black" points="1067.66,-187 1064.66,-191 1043.66,-191 1040.66,-187 984.34,-187 984.34,-151 1067.66,-151 1067.66,-187"/>
<text text-anchor="middle" x="1026" y="-164.8" font-family="Times,serif" font-size="14.00">AppModule</text>
</g>
<!-- AddItemsComponent&#45;&gt;AppModule -->
<g id="edge2" class="edge">
<title>AddItemsComponent&#45;&gt;AppModule</title>
<path fill="none" stroke="black" d="M1702,-122.25C1702,-145.02 1702,-181 1702,-181 1702,-181 1077.78,-181 1077.78,-181"/>
<polygon fill="black" stroke="black" points="1077.78,-177.5 1067.78,-181 1077.78,-184.5 1077.78,-177.5"/>
</g>
<!-- AppComponent -->
<g id="node4" class="node">
<title>AppComponent</title>
<polygon fill="#ffffb3" stroke="black" points="1615.94,-122 1510.06,-122 1510.06,-86 1615.94,-86 1615.94,-122"/>
<text text-anchor="middle" x="1563" y="-99.8" font-family="Times,serif" font-size="14.00">AppComponent</text>
</g>
<!-- AppComponent&#45;&gt;AppModule -->
<g id="edge3" class="edge">
<title>AppComponent&#45;&gt;AppModule</title>
<path fill="none" stroke="black" d="M1563,-122.28C1563,-143.32 1563,-175 1563,-175 1563,-175 1077.69,-175 1077.69,-175"/>
<polygon fill="black" stroke="black" points="1077.69,-171.5 1067.69,-175 1077.69,-178.5 1077.69,-171.5"/>
</g>
<!-- HomeComponent -->
<g id="node5" class="node">
<title>HomeComponent</title>
<polygon fill="#ffffb3" stroke="black" points="1492.55,-122 1377.45,-122 1377.45,-86 1492.55,-86 1492.55,-122"/>
<text text-anchor="middle" x="1435" y="-99.8" font-family="Times,serif" font-size="14.00">HomeComponent</text>
</g>
<!-- HomeComponent&#45;&gt;AppModule -->
<g id="edge4" class="edge">
<title>HomeComponent&#45;&gt;AppModule</title>
<path fill="none" stroke="black" d="M1435,-122.11C1435,-141.34 1435,-169 1435,-169 1435,-169 1077.85,-169 1077.85,-169"/>
<polygon fill="black" stroke="black" points="1077.85,-165.5 1067.85,-169 1077.85,-172.5 1077.85,-165.5"/>
</g>
<!-- LoaderComponent -->
<g id="node6" class="node">
<title>LoaderComponent</title>
<polygon fill="#ffffb3" stroke="black" points="1359.47,-122 1238.53,-122 1238.53,-86 1359.47,-86 1359.47,-122"/>
<text text-anchor="middle" x="1299" y="-99.8" font-family="Times,serif" font-size="14.00">LoaderComponent</text>
</g>
<!-- LoaderComponent&#45;&gt;AppModule -->
<g id="edge5" class="edge">
<title>LoaderComponent&#45;&gt;AppModule</title>
<path fill="none" stroke="black" d="M1299,-122.02C1299,-139.37 1299,-163 1299,-163 1299,-163 1077.76,-163 1077.76,-163"/>
<polygon fill="black" stroke="black" points="1077.76,-159.5 1067.76,-163 1077.76,-166.5 1077.76,-159.5"/>
</g>
<!-- LoginComponent -->
<g id="node7" class="node">
<title>LoginComponent</title>
<polygon fill="#ffffb3" stroke="black" points="1220.28,-122 1105.72,-122 1105.72,-86 1220.28,-86 1220.28,-122"/>
<text text-anchor="middle" x="1163" y="-99.8" font-family="Times,serif" font-size="14.00">LoginComponent</text>
</g>
<!-- LoginComponent&#45;&gt;AppModule -->
<g id="edge6" class="edge">
<title>LoginComponent&#45;&gt;AppModule</title>
<path fill="none" stroke="black" d="M1163,-122.24C1163,-137.57 1163,-157 1163,-157 1163,-157 1077.85,-157 1077.85,-157"/>
<polygon fill="black" stroke="black" points="1077.85,-153.5 1067.85,-157 1077.85,-160.5 1077.85,-153.5"/>
</g>
<!-- NavbarComponent -->
<g id="node8" class="node">
<title>NavbarComponent</title>
<polygon fill="#ffffb3" stroke="black" points="1087.03,-122 964.97,-122 964.97,-86 1087.03,-86 1087.03,-122"/>
<text text-anchor="middle" x="1026" y="-99.8" font-family="Times,serif" font-size="14.00">NavbarComponent</text>
</g>
<!-- NavbarComponent&#45;&gt;AppModule -->
<g id="edge7" class="edge">
<title>NavbarComponent&#45;&gt;AppModule</title>
<path fill="none" stroke="black" d="M1026,-122.11C1026,-122.11 1026,-140.99 1026,-140.99"/>
<polygon fill="black" stroke="black" points="1022.5,-140.99 1026,-150.99 1029.5,-140.99 1022.5,-140.99"/>
</g>
<!-- ProductsComponent -->
<g id="node9" class="node">
<title>ProductsComponent</title>
<polygon fill="#ffffb3" stroke="black" points="947.33,-122 816.67,-122 816.67,-86 947.33,-86 947.33,-122"/>
<text text-anchor="middle" x="882" y="-99.8" font-family="Times,serif" font-size="14.00">ProductsComponent</text>
</g>
<!-- ProductsComponent&#45;&gt;AppModule -->
<g id="edge8" class="edge">
<title>ProductsComponent&#45;&gt;AppModule</title>
<path fill="none" stroke="black" d="M882,-122.24C882,-137.57 882,-157 882,-157 882,-157 973.96,-157 973.96,-157"/>
<polygon fill="black" stroke="black" points="973.96,-160.5 983.96,-157 973.96,-153.5 973.96,-160.5"/>
</g>
<!-- RegisterComponent -->
<g id="node10" class="node">
<title>RegisterComponent</title>
<polygon fill="#ffffb3" stroke="black" points="798.98,-122 671.02,-122 671.02,-86 798.98,-86 798.98,-122"/>
<text text-anchor="middle" x="735" y="-99.8" font-family="Times,serif" font-size="14.00">RegisterComponent</text>
</g>
<!-- RegisterComponent&#45;&gt;AppModule -->
<g id="edge9" class="edge">
<title>RegisterComponent&#45;&gt;AppModule</title>
<path fill="none" stroke="black" d="M735,-122.02C735,-139.37 735,-163 735,-163 735,-163 974.31,-163 974.31,-163"/>
<polygon fill="black" stroke="black" points="974.31,-166.5 984.31,-163 974.31,-159.5 974.31,-166.5"/>
</g>
<!-- SellItemsComponent -->
<g id="node11" class="node">
<title>SellItemsComponent</title>
<polygon fill="#ffffb3" stroke="black" points="653.21,-122 518.79,-122 518.79,-86 653.21,-86 653.21,-122"/>
<text text-anchor="middle" x="586" y="-99.8" font-family="Times,serif" font-size="14.00">SellItemsComponent</text>
</g>
<!-- SellItemsComponent&#45;&gt;AppModule -->
<g id="edge10" class="edge">
<title>SellItemsComponent&#45;&gt;AppModule</title>
<path fill="none" stroke="black" d="M586,-122.11C586,-141.34 586,-169 586,-169 586,-169 974.21,-169 974.21,-169"/>
<polygon fill="black" stroke="black" points="974.21,-172.5 984.21,-169 974.21,-165.5 974.21,-172.5"/>
</g>
<!-- UserlistComponent -->
<g id="node12" class="node">
<title>UserlistComponent</title>
<polygon fill="#ffffb3" stroke="black" points="500.38,-122 375.62,-122 375.62,-86 500.38,-86 500.38,-122"/>
<text text-anchor="middle" x="438" y="-99.8" font-family="Times,serif" font-size="14.00">UserlistComponent</text>
</g>
<!-- UserlistComponent&#45;&gt;AppModule -->
<g id="edge11" class="edge">
<title>UserlistComponent&#45;&gt;AppModule</title>
<path fill="none" stroke="black" d="M438,-122.28C438,-143.32 438,-175 438,-175 438,-175 974.18,-175 974.18,-175"/>
<polygon fill="black" stroke="black" points="974.18,-178.5 984.18,-175 974.18,-171.5 974.18,-178.5"/>
</g>
<!-- AppComponent  -->
<g id="node15" class="node">
<title>AppComponent </title>
<polygon fill="#80b1d3" stroke="black" points="1080.44,-252 971.56,-252 971.56,-216 1080.44,-216 1080.44,-252"/>
<text text-anchor="middle" x="1026" y="-229.8" font-family="Times,serif" font-size="14.00">AppComponent </text>
</g>
<!-- AppModule&#45;&gt;AppComponent  -->
<g id="edge13" class="edge">
<title>AppModule&#45;&gt;AppComponent </title>
<path fill="none" stroke="black" stroke-dasharray="1,5" d="M1026,-187.11C1026,-187.11 1026,-205.99 1026,-205.99"/>
<polygon fill="black" stroke="black" points="1022.5,-205.99 1026,-215.99 1029.5,-205.99 1022.5,-205.99"/>
</g>
<!-- AppRoutingModule -->
<g id="node14" class="node">
<title>AppRoutingModule</title>
<polygon fill="#8dd3c7" stroke="black" points="352.27,-122 349.27,-126 328.27,-126 325.27,-122 223.73,-122 223.73,-86 352.27,-86 352.27,-122"/>
<text text-anchor="middle" x="288" y="-99.8" font-family="Times,serif" font-size="14.00">AppRoutingModule</text>
</g>
<!-- AppRoutingModule&#45;&gt;AppModule -->
<g id="edge12" class="edge">
<title>AppRoutingModule&#45;&gt;AppModule</title>
<path fill="none" stroke="black" d="M288,-122.25C288,-145.02 288,-181 288,-181 288,-181 974.21,-181 974.21,-181"/>
<polygon fill="black" stroke="black" points="974.21,-184.5 984.21,-181 974.21,-177.5 974.21,-184.5"/>
</g>
<!-- ProductRoutingModule -->
<g id="node16" class="node">
<title>ProductRoutingModule</title>
<polygon fill="#8dd3c7" stroke="black" points="1958.22,-122 1955.22,-126 1934.22,-126 1931.22,-122 1809.78,-122 1809.78,-86 1958.22,-86 1958.22,-122"/>
<text text-anchor="middle" x="1884" y="-99.8" font-family="Times,serif" font-size="14.00">ProductRoutingModule</text>
</g>
<!-- ProductModule -->
<g id="node17" class="node">
<title>ProductModule</title>
<polygon fill="#8dd3c7" stroke="black" points="1935.6,-187 1932.6,-191 1911.6,-191 1908.6,-187 1832.4,-187 1832.4,-151 1935.6,-151 1935.6,-187"/>
<text text-anchor="middle" x="1884" y="-164.8" font-family="Times,serif" font-size="14.00">ProductModule</text>
</g>
<!-- ProductRoutingModule&#45;&gt;ProductModule -->
<g id="edge14" class="edge">
<title>ProductRoutingModule&#45;&gt;ProductModule</title>
<path fill="none" stroke="black" d="M1884,-122.11C1884,-122.11 1884,-140.99 1884,-140.99"/>
<polygon fill="black" stroke="black" points="1880.5,-140.99 1884,-150.99 1887.5,-140.99 1880.5,-140.99"/>
</g>
<!-- SellItemsRoutingModule -->
<g id="node18" class="node">
<title>SellItemsRoutingModule</title>
<polygon fill="#8dd3c7" stroke="black" points="2155.55,-122 2152.55,-126 2131.55,-126 2128.55,-122 1998.45,-122 1998.45,-86 2155.55,-86 2155.55,-122"/>
<text text-anchor="middle" x="2077" y="-99.8" font-family="Times,serif" font-size="14.00">SellItemsRoutingModule</text>
</g>
<!-- SellItemsModule -->
<g id="node19" class="node">
<title>SellItemsModule</title>
<polygon fill="#8dd3c7" stroke="black" points="2133.43,-187 2130.43,-191 2109.43,-191 2106.43,-187 2020.57,-187 2020.57,-151 2133.43,-151 2133.43,-187"/>
<text text-anchor="middle" x="2077" y="-164.8" font-family="Times,serif" font-size="14.00">SellItemsModule</text>
</g>
<!-- SellItemsRoutingModule&#45;&gt;SellItemsModule -->
<g id="edge15" class="edge">
<title>SellItemsRoutingModule&#45;&gt;SellItemsModule</title>
<path fill="none" stroke="black" d="M2077,-122.11C2077,-122.11 2077,-140.99 2077,-140.99"/>
<polygon fill="black" stroke="black" points="2073.5,-140.99 2077,-150.99 2080.5,-140.99 2073.5,-140.99"/>
</g>
<!-- UserRoutingModule -->
<g id="node20" class="node">
<title>UserRoutingModule</title>
<polygon fill="#8dd3c7" stroke="black" points="2327.59,-122 2324.59,-126 2303.59,-126 2300.59,-122 2196.41,-122 2196.41,-86 2327.59,-86 2327.59,-122"/>
<text text-anchor="middle" x="2262" y="-99.8" font-family="Times,serif" font-size="14.00">UserRoutingModule</text>
</g>
<!-- UserModule -->
<g id="node21" class="node">
<title>UserModule</title>
<polygon fill="#8dd3c7" stroke="black" points="2304.98,-187 2301.98,-191 2280.98,-191 2277.98,-187 2219.02,-187 2219.02,-151 2304.98,-151 2304.98,-187"/>
<text text-anchor="middle" x="2262" y="-164.8" font-family="Times,serif" font-size="14.00">UserModule</text>
</g>
<!-- UserRoutingModule&#45;&gt;UserModule -->
<g id="edge16" class="edge">
<title>UserRoutingModule&#45;&gt;UserModule</title>
<path fill="none" stroke="black" d="M2262,-122.11C2262,-122.11 2262,-140.99 2262,-140.99"/>
<polygon fill="black" stroke="black" points="2258.5,-140.99 2262,-150.99 2265.5,-140.99 2258.5,-140.99"/>
</g>
</g>
</svg>
